<?xml version="1.0" encoding="UTF-8" standalone="no"?>
<!DOCTYPE svg PUBLIC "-//W3C//DTD SVG 1.1//EN" "http://www.w3.org/Graphics/SVG/1.1/DTD/svg11.dtd">
<svg width="100%" height="100%" viewBox="0 0 1080 622" version="1.1" xmlns="http://www.w3.org/2000/svg" xmlns:xlink="http://www.w3.org/1999/xlink" xml:space="preserve" xmlns:serif="http://www.serif.com/" style="fill-rule:evenodd;clip-rule:evenodd;stroke-linecap:round;stroke-linejoin:round;stroke-miterlimit:1.5;">
    <g id="Artboard1" transform="matrix(1,0,0,0.575444,0,0)">
        <rect x="0" y="0" width="1080" height="1080" style="fill:none;"/>
        <g transform="matrix(6.75392e-17,1.91678,-1.46433,1.55817e-16,764.798,66.8112)">
            <path d="M382.345,314.268C382.345,295.071 361.654,279.486 336.169,279.486L264.549,279.486C239.064,279.486 218.374,295.071 218.374,314.268C218.374,333.464 239.064,349.049 264.549,349.049L336.169,349.049C361.654,349.049 382.345,333.464 382.345,314.268Z" style="fill:none;stroke:black;stroke-width:4.29px;"/>
            <path d="M382.345,314.268C382.345,295.071 361.654,279.486 336.169,279.486L264.549,279.486C239.064,279.486 218.374,295.071 218.374,314.268C218.374,333.464 239.064,349.049 264.549,349.049L336.169,349.049C361.654,349.049 382.345,333.464 382.345,314.268Z" style="fill:rgb(21,94,208);"/>
        </g>
        <g transform="matrix(1.06617,0,0,1.06617,-40.981,-100.141)">
            <g transform="matrix(1.37344,0,0,2.38675,-144.443,-432.998)">
                <path d="M382.345,314.268C382.345,295.071 366.76,279.486 347.563,279.486L253.155,279.486C233.959,279.486 218.374,295.071 218.374,314.268C218.374,333.464 233.959,349.049 253.155,349.049L347.563,349.049C366.76,349.049 382.345,333.464 382.345,314.268Z" style="fill:none;stroke:black;stroke-width:3.8px;"/>
                <path d="M382.345,314.268C382.345,295.071 366.76,279.486 347.563,279.486L253.155,279.486C233.959,279.486 218.374,295.071 218.374,314.268C218.374,333.464 233.959,349.049 253.155,349.049L347.563,349.049C366.76,349.049 382.345,333.464 382.345,314.268Z" style="fill:rgb(209,7,13);"/>
            </g>
            <g transform="matrix(1.37344,0,0,2.38675,-23.5538,-432.998)">
                <path d="M382.345,314.268C382.345,295.071 366.76,279.486 347.563,279.486L253.155,279.486C233.959,279.486 218.374,295.071 218.374,314.268C218.374,333.464 233.959,349.049 253.155,349.049L347.563,349.049C366.76,349.049 382.345,333.464 382.345,314.268Z" style="fill:none;stroke:black;stroke-width:3.8px;"/>
                <path d="M382.345,314.268C382.345,295.071 366.76,279.486 347.563,279.486L253.155,279.486C233.959,279.486 218.374,295.071 218.374,314.268C218.374,333.464 233.959,349.049 253.155,349.049L347.563,349.049C366.76,349.049 382.345,333.464 382.345,314.268Z" style="fill:rgb(236,0,5);"/>
            </g>
        </g>
        <g transform="matrix(6.09405e-17,1.72951,-1.46433,1.55817e-16,764.798,-34.0885)">
            <path d="M382.345,314.268C382.345,295.071 359.414,279.486 331.169,279.486L269.549,279.486C241.305,279.486 218.374,295.071 218.374,314.268C218.374,333.464 241.305,349.049 269.549,349.049L331.169,349.049C359.414,349.049 382.345,333.464 382.345,314.268Z" style="fill:none;stroke:black;stroke-width:4.44px;"/>
            <path d="M382.345,314.268C382.345,295.071 359.414,279.486 331.169,279.486L269.549,279.486C241.305,279.486 218.374,295.071 218.374,314.268C218.374,333.464 241.305,349.049 269.549,349.049L331.169,349.049C359.414,349.049 382.345,333.464 382.345,314.268Z" style="fill:rgb(0,100,255);"/>
        </g>
        <g transform="matrix(1.56456,0,0,2.71887,212.786,-1419.34)">
            <path d="M192.751,816.924C234.155,816.924 260.995,796.326 260.995,749.304C260.995,749.288 260.995,712.981 260.995,689.069C260.995,677.751 251.82,668.575 240.501,668.575C240.501,668.575 240.501,668.575 240.501,668.575C235.065,668.575 229.853,670.734 226.009,674.578C222.166,678.421 220.007,683.634 220.007,689.069L220.007,750.552C220.007,770.942 209.396,780.513 193.167,780.513C176.938,780.513 166.327,770.526 166.327,749.512L166.327,689.069C166.327,677.751 157.151,668.575 145.833,668.575L145.832,668.575C140.397,668.575 135.184,670.734 131.341,674.578C127.497,678.421 125.338,683.634 125.338,689.069L125.338,750.344C125.338,795.91 151.346,816.924 192.751,816.924Z" style="fill:none;fill-rule:nonzero;stroke:black;stroke-width:3.55px;stroke-linecap:butt;stroke-miterlimit:2;"/>
            <path d="M192.751,816.924C234.155,816.924 260.995,796.326 260.995,749.304C260.995,749.288 260.995,712.981 260.995,689.069C260.995,677.751 251.82,668.575 240.501,668.575C240.501,668.575 240.501,668.575 240.501,668.575C235.065,668.575 229.853,670.734 226.009,674.578C222.166,678.421 220.007,683.634 220.007,689.069L220.007,750.552C220.007,770.942 209.396,780.513 193.167,780.513C176.938,780.513 166.327,770.526 166.327,749.512L166.327,689.069C166.327,677.751 157.151,668.575 145.833,668.575L145.832,668.575C140.397,668.575 135.184,670.734 131.341,674.578C127.497,678.421 125.338,683.634 125.338,689.069L125.338,750.344C125.338,795.91 151.346,816.924 192.751,816.924Z" style="fill:rgb(255,154,0);fill-rule:nonzero;"/>
        </g>
        <g transform="matrix(1.56456,0,0,2.71887,193.489,-1419.34)">
            <path d="M285.755,799.397C285.755,803.328 287.316,807.098 290.096,809.878C292.875,812.658 296.645,814.219 300.576,814.219C304.138,814.219 307.943,814.219 311.505,814.219C315.436,814.219 319.206,812.658 321.986,809.878C324.765,807.098 326.327,803.328 326.327,799.397C326.327,771.464 326.327,711.33 326.327,683.397C326.327,679.466 324.765,675.696 321.986,672.916C319.206,670.137 315.436,668.575 311.505,668.575C307.943,668.575 304.138,668.575 300.576,668.575C296.645,668.575 292.875,670.137 290.096,672.916C287.316,675.696 285.755,679.466 285.755,683.397C285.755,711.33 285.755,771.464 285.755,799.397Z" style="fill:none;fill-rule:nonzero;stroke:black;stroke-width:3.55px;stroke-linecap:butt;stroke-miterlimit:2;"/>
            <path d="M285.755,799.397C285.755,803.328 287.316,807.098 290.096,809.878C292.875,812.658 296.645,814.219 300.576,814.219C304.138,814.219 307.943,814.219 311.505,814.219C315.436,814.219 319.206,812.658 321.986,809.878C324.765,807.098 326.327,803.328 326.327,799.397C326.327,771.464 326.327,711.33 326.327,683.397C326.327,679.466 324.765,675.696 321.986,672.916C319.206,670.137 315.436,668.575 311.505,668.575C307.943,668.575 304.138,668.575 300.576,668.575C296.645,668.575 292.875,670.137 290.096,672.916C287.316,675.696 285.755,679.466 285.755,683.397C285.755,711.33 285.755,771.464 285.755,799.397Z" style="fill:rgb(0,191,232);fill-rule:nonzero;"/>
        </g>
        <g transform="matrix(1.56456,0,0,2.71887,180.426,-1419.34)">
            <path d="M344.117,811.594C343.769,812.11 343.735,812.776 344.027,813.326C344.319,813.876 344.891,814.219 345.514,814.219C354.725,814.219 381.206,814.219 386.7,814.219C387.319,814.219 387.889,813.879 388.182,813.334C391.319,807.515 409.024,774.669 414.306,764.869C414.6,764.323 415.171,763.983 415.791,763.984C416.411,763.985 416.98,764.327 417.273,764.873C422.518,774.676 440.079,807.499 443.198,813.33C443.491,813.877 444.062,814.219 444.683,814.219C450.276,814.219 477.56,814.219 486.916,814.219C487.538,814.219 488.109,813.876 488.402,813.328C488.694,812.779 488.661,812.114 488.315,811.598C480.12,799.373 445.844,748.245 440.767,740.672C440.386,740.104 440.387,739.362 440.768,738.794C445.712,731.443 478.248,683.063 486.227,671.199C486.574,670.682 486.609,670.017 486.316,669.467C486.024,668.918 485.452,668.575 484.83,668.575L443.739,668.575C443.068,668.575 442.461,668.973 442.194,669.589C439.328,676.193 423.271,713.195 418.177,724.934C417.91,725.55 417.302,725.948 416.63,725.947C415.958,725.947 415.351,725.546 415.086,724.929C409.697,712.411 391.957,671.201 390.878,668.695C390.847,668.622 390.775,668.575 390.696,668.575C388.149,668.575 349.028,668.575 344.798,668.575C344.725,668.575 344.658,668.615 344.624,668.68C344.59,668.744 344.593,668.822 344.634,668.883C347.789,673.601 386.254,731.132 391.654,739.209C392.034,739.777 392.033,740.519 391.651,741.086C386.568,748.625 352.333,799.407 344.117,811.594Z" style="fill:none;fill-rule:nonzero;stroke:black;stroke-width:3.55px;stroke-linecap:butt;stroke-miterlimit:2;"/>
            <path d="M344.117,811.594C343.769,812.11 343.735,812.776 344.027,813.326C344.319,813.876 344.891,814.219 345.514,814.219C354.725,814.219 381.206,814.219 386.7,814.219C387.319,814.219 387.889,813.879 388.182,813.334C391.319,807.515 409.024,774.669 414.306,764.869C414.6,764.323 415.171,763.983 415.791,763.984C416.411,763.985 416.98,764.327 417.273,764.873C422.518,774.676 440.079,807.499 443.198,813.33C443.491,813.877 444.062,814.219 444.683,814.219C450.276,814.219 477.56,814.219 486.916,814.219C487.538,814.219 488.109,813.876 488.402,813.328C488.694,812.779 488.661,812.114 488.315,811.598C480.12,799.373 445.844,748.245 440.767,740.672C440.386,740.104 440.387,739.362 440.768,738.794C445.712,731.443 478.248,683.063 486.227,671.199C486.574,670.682 486.609,670.017 486.316,669.467C486.024,668.918 485.452,668.575 484.83,668.575L443.739,668.575C443.068,668.575 442.461,668.973 442.194,669.589C439.328,676.193 423.271,713.195 418.177,724.934C417.91,725.55 417.302,725.948 416.63,725.947C415.958,725.947 415.351,725.546 415.086,724.929C409.697,712.411 391.957,671.201 390.878,668.695C390.847,668.622 390.775,668.575 390.696,668.575C388.149,668.575 349.028,668.575 344.798,668.575C344.725,668.575 344.658,668.615 344.624,668.68C344.59,668.744 344.593,668.822 344.634,668.883C347.789,673.601 386.254,731.132 391.654,739.209C392.034,739.777 392.033,740.519 391.651,741.086C386.568,748.625 352.333,799.407 344.117,811.594Z" style="fill:rgb(153,1,204);fill-rule:nonzero;"/>
        </g>
        <g transform="matrix(1.06617,0,0,1.85278,402.443,-90.1069)">
            <text x="81.226px" y="549.895px" style="font-family:'Gotham-Black', 'Gotham Black';font-weight:500;font-size:71.713px;fill:rgb(204,1,145);">PORTF</text>
            <text x="334.446px" y="549.895px" style="font-family:'Gotham-Black', 'Gotham Black';font-weight:500;font-size:71.713px;fill:rgb(40,0,53);">OLIO</text>
        </g>
    </g>
</svg>
